<?xml version="1.0" encoding="utf-8"?>
<!-- Generator: Adobe Illustrator 16.0.4, SVG Export Plug-In . SVG Version: 6.00 Build 0)  -->
<!DOCTYPE svg PUBLIC "-//W3C//DTD SVG 1.1//EN" "http://www.w3.org/Graphics/SVG/1.1/DTD/svg11.dtd">
<svg version="1.1" id="Layer_1" xmlns="http://www.w3.org/2000/svg" xmlns:xlink="http://www.w3.org/1999/xlink" x="0px" y="0px"
	 width="169.639px" height="36px" viewBox="0 0 169.639 36" enable-background="new 0 0 169.639 36" xml:space="preserve">
<g>
	<g>
		<polygon fill="#FFFFFF" points="7.004,10.241 5.609,15.399 10.02,15.399 7.314,25.833 14.104,25.833 16.812,15.399 21.201,15.399 
			22.603,10.241 		"/>
		<path fill="#FFFFFF" d="M32.636,9.808c-3.974,0-7.23,0.396-9.114,3.389c-1.558,2.484-2.475,5.819-2.475,8.042
			c0,4.872,3.634,5.022,8.489,5.022c3.125,0,7.238-0.195,8.945-2.906c1.709-2.635,2.65-6.291,2.65-8.518
			C41.132,9.963,36.599,9.808,32.636,9.808 M32.903,20.636c-0.655,1.186-1.314,1.468-2.907,1.468c-0.895,0-1.991-0.365-1.991-1.965
			c0-0.778,0.504-2.532,1.097-3.64c0.784-1.468,1.68-1.532,2.751-1.532c1.508,0,2.119,0.692,2.119,1.819
			C33.972,18.534,33.146,20.205,32.903,20.636"/>
		<polygon fill="#FFFFFF" points="53.627,10.241 49.621,17.105 49.557,17.105 48.703,10.241 41.404,10.241 44.661,22.269 
			42.024,25.833 50.02,25.833 61.361,10.241 		"/>
		<path fill="#FFFFFF" d="M69.844,9.808c-3.978,0-7.235,0.396-9.118,3.389c-1.552,2.484-2.472,5.819-2.472,8.042
			c0,4.872,3.632,5.022,8.488,5.022c3.123,0,7.235-0.195,8.944-2.906c1.711-2.635,2.648-6.291,2.648-8.518
			C78.335,9.963,73.806,9.808,69.844,9.808 M70.108,20.636c-0.658,1.186-1.311,1.468-2.911,1.468c-0.889,0-1.987-0.365-1.987-1.965
			c0-0.778,0.506-2.532,1.099-3.64c0.782-1.468,1.68-1.532,2.747-1.532c1.513,0,2.122,0.692,2.122,1.819
			C71.178,18.534,70.349,20.205,70.108,20.636"/>
		<polygon fill="#FFFFFF" points="81.322,10.465 81.322,15.625 84.338,15.625 81.627,26.061 88.42,26.061 91.129,15.625 
			95.512,15.625 96.913,10.465 		"/>
		<polygon fill="#FFFFFF" points="97.955,10.465 93.828,26.061 100.407,26.061 104.646,10.465 		"/>
		<path fill="#FFFFFF" d="M122.279,13.934c0-2.206-0.634-3.472-3.604-3.472h-12.888l-4.263,15.599h6.667l1.378-5.437l3.237,5.437
			h7.799l-4.508-6.404h1.184C120.1,19.657,122.279,17.865,122.279,13.934 M113.363,18.057h-2.985l0.827-3.229h2.914
			c0.913,0,1.434,0.346,1.434,1.092C115.553,16.924,114.897,18.057,113.363,18.057"/>
		<polygon fill="#FFFFFF" points="140.059,15.397 141.352,10.465 125.251,10.465 121.232,26.061 137.309,26.061 138.378,21.9 
			129.073,21.9 129.443,20.499 138.753,20.499 139.622,17.126 130.318,17.126 130.763,15.397 		"/>
		<path fill="#FFFFFF" d="M153.134,14.963c2.143,0,4.235,0.214,6.355,0.477l1.378-4.819c-3.189-0.478-6.708-0.588-8.889-0.588
			c-1.624,0-5.137,0.044-6.607,0.456c-2.617,0.743-4.366,3.469-4.366,6.81c0,2.451,2.213,3.128,4.217,3.128
			c3.912,0,4.307,0.153,4.307,0.902c0,1.003-1.527,1.003-2.252,1.003c-2.51,0-4.983-0.195-7.473-0.491l-0.979,3.93
			c2.898,0.521,5.876,0.719,9.37,0.719c4.305,0,7.886-0.416,9.242-2.603c0.461-0.743,1.024-2.433,1.024-3.633
			c0-3.28-2.186-3.388-4.674-3.388c-3.434,0-5.267-0.172-5.267-0.802C148.521,15.335,150.532,14.963,153.134,14.963"/>
		<path fill="#FFFFFF" d="M164.293,12h-0.28v-1.741h0.603c0.213,0,0.364,0.018,0.451,0.053c0.089,0.031,0.159,0.088,0.212,0.166
			c0.054,0.078,0.08,0.163,0.08,0.252c0,0.133-0.047,0.245-0.14,0.337s-0.213,0.144-0.358,0.154
			c0.065,0.027,0.127,0.072,0.184,0.136c0.06,0.062,0.133,0.162,0.222,0.305L165.477,12h-0.344l-0.152-0.272
			c-0.11-0.196-0.197-0.323-0.263-0.38c-0.063-0.06-0.149-0.088-0.257-0.088h-0.168V12z M164.293,10.495v0.524h0.344
			c0.146,0,0.253-0.021,0.32-0.063s0.101-0.109,0.101-0.201c0-0.096-0.032-0.163-0.099-0.201c-0.064-0.039-0.179-0.059-0.344-0.059
			H164.293z M164.661,9.511c0.288,0,0.558,0.073,0.809,0.219c0.251,0.145,0.448,0.343,0.593,0.594
			c0.146,0.248,0.219,0.518,0.219,0.807c0,0.29-0.072,0.561-0.217,0.81s-0.343,0.445-0.593,0.59
			c-0.25,0.146-0.521,0.217-0.811,0.217c-0.293,0-0.563-0.071-0.814-0.214c-0.25-0.146-0.448-0.342-0.593-0.591
			c-0.144-0.251-0.217-0.521-0.217-0.812c0-0.291,0.073-0.561,0.217-0.81c0.146-0.25,0.345-0.448,0.596-0.593
			C164.1,9.583,164.37,9.511,164.661,9.511 M164.661,9.78c-0.373,0-0.69,0.132-0.956,0.397c-0.264,0.264-0.396,0.581-0.396,0.953
			c0,0.374,0.132,0.692,0.396,0.955c0.264,0.262,0.582,0.393,0.956,0.393c0.371,0,0.689-0.132,0.953-0.395
			c0.263-0.264,0.395-0.581,0.395-0.953s-0.132-0.689-0.397-0.953C165.349,9.912,165.031,9.78,164.661,9.78"/>
	</g>
</g>
<g>
</g>
<g>
</g>
<g>
</g>
<g>
</g>
<g>
</g>
<g>
</g>
</svg>
