<?xml version="1.0" encoding="utf-8"?>
<!-- Generator: Adobe Illustrator 16.0.4, SVG Export Plug-In . SVG Version: 6.00 Build 0)  -->
<!DOCTYPE svg PUBLIC "-//W3C//DTD SVG 1.1//EN" "http://www.w3.org/Graphics/SVG/1.1/DTD/svg11.dtd">
<svg version="1.1" id="Layer_1" xmlns="http://www.w3.org/2000/svg" xmlns:xlink="http://www.w3.org/1999/xlink" x="0px" y="0px"
	 width="169.639px" height="36px" viewBox="0 0 169.639 36" enable-background="new 0 0 169.639 36" xml:space="preserve">
<g>
	<circle fill="#0065A2" cx="6.857" cy="21.002" r="5.856"/>
	<circle fill="#0065A2" cx="52.013" cy="21.002" r="5.856"/>
	<circle fill="#0065A2" cx="21.985" cy="21.616" r="6.565"/>
	<circle fill="#EFBA34" cx="37.114" cy="21.616" r="6.566"/>
	<circle fill="#0065A2" cx="29.77" cy="31.473" r="3.971"/>
	<circle fill="#0065A2" cx="45.109" cy="7.784" r="5.269"/>
	<circle fill="#0065A2" cx="15.285" cy="7.784" r="5.269"/>
	<circle fill="#0065A2" cx="29.874" cy="7.121" r="6.564"/>
</g>
<g>
	<path fill="#6E6F71" d="M89.646,11.857c-0.604,0.284-1.119,0.677-1.544,1.173v-1.574h-3.315v19.467h3.451v-10.8
		c0-0.825,0.054-1.536,0.161-2.115c0.097-0.523,0.357-1.042,0.799-1.571c0.098-0.134,0.207-0.258,0.327-0.369
		c0.143-0.131,0.29-0.263,0.433-0.384l0.549-0.434c0.395-0.229,0.793-0.4,1.183-0.515c0.404-0.116,0.869-0.208,1.383-0.271
		l0.414-0.053v-3.337l-0.481,0.01C91.814,11.107,90.685,11.368,89.646,11.857z"/>
	<path fill="#6E6F71" d="M111.436,13.994c-0.62-0.764-1.394-1.381-2.311-1.845c-1.358-0.683-2.8-1.042-4.293-1.065h-0.169
		c-1.643,0-3.105,0.293-4.349,0.873c-1.235,0.577-2.325,1.358-3.237,2.316c-0.849,0.873-1.536,1.905-2.043,3.07
		c-0.508,1.172-0.767,2.438-0.767,3.762c0,1.032,0.126,2.004,0.374,2.888c0.245,0.876,0.525,1.618,0.828,2.196
		c0.123,0.252,0.256,0.474,0.396,0.664c0.13,0.176,0.24,0.323,0.346,0.452c0.887,1.027,1.873,1.864,2.929,2.485
		c1.054,0.622,2.137,1.056,3.214,1.289c0.402,0.094,0.8,0.165,1.185,0.213c0.392,0.048,0.792,0.07,1.19,0.07
		c1.536,0,3.003-0.341,4.358-1.013c0.929-0.461,1.714-1.092,2.348-1.885v2.457h3.351V11.456h-3.351V13.994z M109.501,16.409
		c1.302,1.359,1.935,2.967,1.935,4.916c0,1.81-0.652,3.351-1.995,4.709c-1.343,1.355-2.883,2.015-4.711,2.015
		c-1.854,0-3.506-0.659-4.91-1.957c-1.413-1.308-2.1-2.871-2.1-4.783c0-1.94,0.667-3.536,2.041-4.877
		c1.379-1.346,2.982-2.011,4.904-2.032C106.624,14.4,108.207,15.057,109.501,16.409z"/>
	<rect x="144.427" y="11.456" fill="#6E6F71" width="3.45" height="19.467"/>
	<rect x="144.427" y="4.955" fill="#6E6F71" width="3.45" height="5.212"/>
	<polygon fill="#6E6F71" points="168.32,11.456 164.219,11.456 159.557,18.238 154.896,11.456 150.798,11.456 157.46,21.041 
		150.814,30.922 154.901,30.922 159.557,23.89 164.214,30.922 168.304,30.922 161.62,21.041 	"/>
	<path fill="#6E6F71" d="M77.383,16.726c0.624-0.537,1.142-1.145,1.544-1.811c0.54-0.898,0.814-1.946,0.814-3.114
		c0-1.162-0.288-2.272-0.857-3.303c-0.566-1.026-1.345-1.865-2.311-2.493c-0.917-0.603-1.908-0.982-2.945-1.126
		c-0.986-0.139-1.998-0.219-3.021-0.242h-6.349v26.048h6.858c1.056,0,2.076-0.046,3.034-0.137c1.006-0.098,2.012-0.399,2.949-0.883
		c0.133-0.054,0.259-0.113,0.375-0.176c0.121-0.068,0.235-0.143,0.313-0.202c1.042-0.653,1.863-1.549,2.443-2.661
		c0.576-1.104,0.868-2.274,0.868-3.479c0-1.535-0.385-2.913-1.145-4.094C79.325,18.074,78.462,17.292,77.383,16.726z M71.812,27.463
		h-4.096v-8.838h3.28c0.272,0,0.549,0.012,0.867,0.034c0.514,0,1.027,0.037,1.525,0.113c0.493,0.075,0.97,0.188,1.41,0.335
		c0.887,0.308,1.566,0.811,2.078,1.535c0.512,0.724,0.75,1.546,0.729,2.511v0.297c0,0.04-0.007,0.087-0.029,0.194
		c-0.081,0.621-0.323,1.229-0.72,1.808c-0.395,0.575-0.882,1.021-1.443,1.32c-0.429,0.224-0.909,0.386-1.427,0.478
		c-0.54,0.099-1.101,0.158-1.707,0.184C72.119,27.454,71.964,27.463,71.812,27.463z M75.707,13.557
		c-0.315,0.513-0.722,0.9-1.216,1.158c-0.453,0.246-0.938,0.418-1.439,0.511c-0.532,0.098-1.075,0.158-1.596,0.18h-1.26
		l-0.033-0.035h-2.446V7.892h2.669c0.098,0,0.202-0.012,0.308-0.035h0.864c0.137,0,0.273,0.011,0.453,0.033
		c0.443,0.021,0.895,0.086,1.34,0.192c0.421,0.101,0.805,0.263,1.149,0.484c0.48,0.3,0.893,0.724,1.227,1.258
		c0.33,0.532,0.518,1.082,0.557,1.603l0.002,0.461C76.226,12.469,76.031,13.031,75.707,13.557z"/>
</g>
<polygon fill="#0065A2" points="142.676,31.028 138.73,31.028 138.661,4.972 142.603,4.972 "/>
<polygon fill="#0065A2" points="121.649,4.972 125.62,4.972 142.676,31.028 138.73,31.028 "/>
<polygon fill="#0065A2" points="121.649,4.965 125.666,4.965 125.666,31.035 121.667,31.035 "/>
<g>
</g>
<g>
</g>
<g>
</g>
<g>
</g>
<g>
</g>
<g>
</g>
</svg>
