<?xml version="1.0" encoding="utf-8"?>
<!-- Generator: Adobe Illustrator 16.0.4, SVG Export Plug-In . SVG Version: 6.00 Build 0)  -->
<!DOCTYPE svg PUBLIC "-//W3C//DTD SVG 1.1//EN" "http://www.w3.org/Graphics/SVG/1.1/DTD/svg11.dtd">
<svg version="1.1" id="Layer_1" xmlns="http://www.w3.org/2000/svg" xmlns:xlink="http://www.w3.org/1999/xlink" x="0px" y="0px"
	 width="169.639px" height="36px" viewBox="0 0 169.639 36" enable-background="new 0 0 169.639 36" xml:space="preserve">
<g>
	<g>
		<g>
			<polygon fill-rule="evenodd" clip-rule="evenodd" fill="#FFFFFF" points="27.123,15.227 17.658,15.227 13.449,2.484 
				20.207,2.484 22.42,10.372 24.445,2.484 31.184,2.484 			"/>
			<path d="M27.275,15.434h-9.768L13.162,2.277h7.201l2.047,7.296l1.873-7.296h7.186L27.275,15.434z M17.809,15.019h9.164
				L30.9,2.692h-6.295l-2.178,8.479l-2.379-8.479h-6.314L17.809,15.019z"/>
		</g>
		<g>
			<rect x="31.982" y="2.484" fill-rule="evenodd" clip-rule="evenodd" fill="#FFFFFF" width="6.553" height="12.742"/>
			<path d="M38.742,15.434h-6.969V2.277h6.969V15.434z M32.189,15.019h6.137V2.692h-6.137V15.019z"/>
		</g>
		<g>
			<polygon fill-rule="evenodd" clip-rule="evenodd" fill="#FFFFFF" points="52.201,15.227 40.064,15.227 40.064,2.484 
				46.619,2.484 46.619,10.718 52.201,10.718 			"/>
			<path d="M52.408,15.434H39.857V2.277h6.969v8.233h5.582V15.434z M40.273,15.019h11.719v-4.094H46.41V2.692h-6.137V15.019z"/>
		</g>
		<g>
			<path fill-rule="evenodd" clip-rule="evenodd" fill="#FFFFFF" d="M53.502,15.227V2.484h11.117c1.051,0,1.953,0.134,2.707,0.401
				c0.76,0.268,1.426,0.691,1.998,1.27c1.064,1.083,1.596,2.514,1.596,4.294c0,2.247-0.844,3.98-2.529,5.2
				c-1.457,1.052-3.24,1.578-5.35,1.578H53.502z M60.055,11.408h0.99c0.902,0,1.582-0.146,2.043-0.438
				c0.691-0.429,1.037-1.114,1.037-2.054c0-0.616-0.166-1.095-0.496-1.438c-0.373-0.398-0.941-0.597-1.707-0.597h-1.867V11.408z"/>
			<path d="M63.041,15.434h-9.746V2.277h11.324c1.07,0,2.004,0.139,2.777,0.413c0.785,0.277,1.482,0.721,2.074,1.319
				c1.1,1.119,1.656,2.612,1.656,4.44c0,2.307-0.879,4.112-2.615,5.368C67.027,14.89,65.186,15.434,63.041,15.434z M53.709,15.019
				h9.332c2.057,0,3.814-0.518,5.229-1.539c1.621-1.172,2.443-2.865,2.443-5.031c0-1.715-0.518-3.111-1.537-4.148
				c-0.547-0.553-1.193-0.963-1.918-1.219c-0.729-0.259-1.615-0.39-2.639-0.39h-10.91V15.019z M61.045,11.616h-1.197V6.674h2.074
				c0.82,0,1.447,0.223,1.859,0.663c0.365,0.379,0.551,0.911,0.551,1.579c0,1.012-0.381,1.762-1.135,2.23
				C62.707,11.458,61.982,11.616,61.045,11.616z M60.262,11.201h0.783c0.857,0,1.508-0.137,1.932-0.406
				c0.633-0.394,0.941-1.008,0.941-1.879c0-0.557-0.148-0.993-0.438-1.293c-0.332-0.355-0.857-0.534-1.559-0.534h-1.66V11.201z"/>
		</g>
		<g>
			<path fill-rule="evenodd" clip-rule="evenodd" fill="#FFFFFF" d="M80.6,2.12c2.652,0,4.742,0.492,6.273,1.475
				c1.611,1.04,2.418,2.794,2.418,5.265c0,1.133-0.189,2.145-0.57,3.034c-0.379,0.89-0.914,1.584-1.605,2.082
				c-1.492,1.077-3.703,1.615-6.627,1.615c-2.932,0-5.141-0.538-6.627-1.615c-0.828-0.598-1.42-1.435-1.775-2.511
				c-0.268-0.815-0.4-1.677-0.4-2.585c0-2.489,0.807-4.25,2.418-5.284C75.641,2.612,77.807,2.121,80.6,2.12z M80.451,6.442
				c-0.709,0-1.254,0.227-1.635,0.682c-0.342,0.423-0.514,1.011-0.514,1.764c0,2.016,0.729,3.024,2.186,3.024
				c1.455,0,2.184-1.005,2.184-3.015C82.672,7.261,81.932,6.443,80.451,6.442z"/>
			<path d="M80.488,15.798L80.488,15.798c-2.963,0-5.232-0.557-6.75-1.654c-0.859-0.621-1.48-1.5-1.848-2.614
				c-0.273-0.832-0.412-1.724-0.412-2.65c0-2.553,0.846-4.389,2.512-5.458c1.564-1,3.787-1.507,6.609-1.508
				c2.68,0,4.828,0.507,6.385,1.508c1.668,1.075,2.514,2.905,2.514,5.439c0,1.156-0.197,2.204-0.586,3.115
				c-0.393,0.921-0.957,1.651-1.676,2.168C85.715,15.241,83.443,15.797,80.488,15.798z M80.6,2.328c-2.74,0-4.889,0.486-6.385,1.442
				c-1.541,0.987-2.322,2.707-2.322,5.109c0,0.883,0.131,1.731,0.391,2.521c0.34,1.029,0.91,1.839,1.699,2.407
				c1.443,1.046,3.633,1.576,6.506,1.576c2.867,0,5.057-0.53,6.506-1.576c0.656-0.473,1.174-1.144,1.535-1.995
				c0.367-0.86,0.555-1.853,0.555-2.953c-0.002-2.384-0.783-4.097-2.324-5.09C85.271,2.813,83.197,2.328,80.6,2.328z M80.488,12.12
				c-1.588,0-2.393-1.087-2.393-3.231c0-0.798,0.189-1.436,0.561-1.895c0.42-0.504,1.023-0.758,1.795-0.758l0,0
				c1.588,0,2.428,0.921,2.428,2.663C82.879,11.036,82.074,12.12,80.488,12.12z M80.451,6.65c-0.65,0-1.133,0.198-1.475,0.607
				c-0.309,0.38-0.465,0.93-0.465,1.631c0,1.896,0.646,2.817,1.977,2.817s1.977-0.918,1.977-2.808
				C82.465,7.385,81.807,6.65,80.451,6.65L80.451,6.65z"/>
		</g>
		<g>
			<path fill-rule="evenodd" clip-rule="evenodd" fill="#FFFFFF" d="M90.383,14.853v-3.491c2.639,0.411,5.012,0.616,7.123,0.616
				c0.59,0,0.885-0.189,0.887-0.569c0-0.199-0.098-0.335-0.291-0.411c-0.08-0.031-0.289-0.046-0.625-0.046h-1.072
				c-0.648,0-1.447-0.05-2.4-0.149c-0.803-0.087-1.463-0.246-1.979-0.476c-0.51-0.236-0.93-0.566-1.26-0.99
				c-0.492-0.628-0.738-1.443-0.738-2.445c0-0.828,0.168-1.556,0.504-2.185c0.344-0.635,0.824-1.12,1.447-1.456
				c1.301-0.691,3.285-1.036,5.957-1.036c2.246,0,4.471,0.212,6.674,0.635v3.734c-0.66-0.105-1.545-0.205-2.652-0.299
				c-1.107-0.093-1.936-0.14-2.482-0.14h-1.447c-0.504,0-0.83,0.053-0.98,0.159c-0.154,0.112-0.232,0.255-0.232,0.43
				c0,0.156,0.064,0.283,0.195,0.382c0.131,0.094,0.303,0.14,0.514,0.14h2.287c1.344,0,2.443,0.159,3.295,0.476
				c0.654,0.249,1.17,0.709,1.549,1.382c0.307,0.541,0.459,1.142,0.459,1.801c0,0.704-0.176,1.363-0.523,1.979
				c-0.348,0.61-0.834,1.108-1.457,1.494c-0.803,0.498-1.668,0.809-2.594,0.934c-0.896,0.118-1.908,0.177-3.033,0.177
				c-1.83,0-3.52-0.106-5.07-0.317C91.883,15.105,91.197,14.996,90.383,14.853z"/>
			<path d="M97.506,15.705L97.506,15.705c-1.83,0-3.545-0.107-5.098-0.32c-0.557-0.075-1.25-0.185-2.061-0.328l-0.172-0.03V11.12
				l0.238,0.038c2.615,0.407,5.002,0.613,7.092,0.613c0.678,0,0.678-0.254,0.678-0.362c0-0.094-0.025-0.167-0.156-0.217
				c-0.014-0.005-0.111-0.032-0.551-0.033h-1.072c-0.654,0-1.469-0.05-2.422-0.15c-0.82-0.089-1.508-0.255-2.041-0.493
				c-0.541-0.25-0.99-0.604-1.34-1.052c-0.518-0.662-0.781-1.528-0.781-2.573c0-0.858,0.178-1.626,0.529-2.282
				c0.359-0.669,0.875-1.187,1.531-1.541c1.326-0.704,3.361-1.061,6.055-1.061c2.246,0,4.506,0.215,6.713,0.639l0.168,0.032v4.148
				l-0.24-0.039c-0.65-0.104-1.537-0.204-2.637-0.297c-1.096-0.092-1.926-0.139-2.465-0.139h-1.447
				c-0.623,0-0.809,0.084-0.859,0.121c-0.102,0.072-0.146,0.153-0.146,0.26c0,0.09,0.035,0.157,0.115,0.217
				c0.088,0.064,0.221,0.098,0.387,0.098h2.287c1.363,0,2.496,0.165,3.367,0.489c0.699,0.266,1.256,0.762,1.658,1.474
				c0.32,0.57,0.484,1.21,0.484,1.903c0,0.736-0.186,1.436-0.551,2.081c-0.363,0.638-0.877,1.166-1.527,1.568
				c-0.824,0.511-1.725,0.835-2.676,0.963C99.666,15.644,98.637,15.704,97.506,15.705z M90.59,14.679
				c0.732,0.127,1.363,0.227,1.875,0.295c1.533,0.209,3.23,0.315,5.041,0.315c1.113,0,2.125-0.059,3.006-0.175
				c0.893-0.12,1.738-0.424,2.514-0.904c0.588-0.365,1.055-0.843,1.385-1.42c0.328-0.582,0.494-1.213,0.494-1.876
				c0-0.621-0.145-1.193-0.43-1.7c-0.354-0.625-0.84-1.06-1.443-1.29c-0.822-0.307-1.908-0.462-3.221-0.462h-2.287
				c-0.254,0-0.467-0.06-0.633-0.179c-0.188-0.142-0.283-0.332-0.283-0.551c0-0.241,0.109-0.448,0.318-0.598
				c0.191-0.135,0.541-0.197,1.102-0.197h1.447c0.551,0,1.393,0.047,2.5,0.141c0.98,0.083,1.795,0.171,2.426,0.264v-3.32
				c-2.127-0.398-4.301-0.6-6.465-0.6c-2.625,0-4.596,0.341-5.859,1.012c-0.582,0.314-1.041,0.776-1.361,1.372
				c-0.318,0.595-0.48,1.296-0.48,2.086c0,0.95,0.234,1.73,0.693,2.318c0.309,0.395,0.707,0.708,1.186,0.929
				c0.49,0.219,1.135,0.374,1.914,0.458c0.938,0.098,1.738,0.148,2.377,0.148h1.072c0.479,0,0.621,0.031,0.699,0.061
				c0.273,0.106,0.424,0.32,0.424,0.604c0,0.291-0.143,0.777-1.094,0.777c-2.047,0-4.373-0.196-6.916-0.582V14.679z"/>
		</g>
		<g>
			<path fill-rule="evenodd" clip-rule="evenodd" fill="#FFFFFF" d="M114.764,2.12c2.652,0,4.742,0.492,6.273,1.475
				c1.611,1.04,2.418,2.794,2.418,5.265c0,1.133-0.189,2.145-0.57,3.034c-0.379,0.89-0.914,1.584-1.605,2.082
				c-1.492,1.077-3.701,1.615-6.627,1.615c-2.932,0-5.141-0.538-6.627-1.615c-0.828-0.598-1.42-1.435-1.773-2.511
				c-0.268-0.815-0.402-1.677-0.402-2.585c0-2.489,0.807-4.25,2.418-5.284C109.805,2.612,111.971,2.121,114.764,2.12z
				 M114.615,6.442c-0.709,0-1.254,0.227-1.633,0.682c-0.344,0.423-0.514,1.011-0.514,1.764c0,2.016,0.729,3.024,2.184,3.024
				c1.457,0,2.186-1.005,2.186-3.015C116.838,7.261,116.096,6.443,114.615,6.442z"/>
			<path d="M114.652,15.798L114.652,15.798c-2.963,0-5.232-0.557-6.748-1.654c-0.861-0.621-1.482-1.5-1.85-2.614
				c-0.273-0.832-0.412-1.724-0.412-2.65c0-2.553,0.846-4.389,2.514-5.458c1.562-1,3.787-1.507,6.607-1.508
				c2.68,0,4.828,0.507,6.387,1.508c1.666,1.075,2.512,2.905,2.512,5.439c0,1.156-0.197,2.204-0.586,3.115
				c-0.393,0.921-0.957,1.651-1.674,2.168C119.879,15.241,117.609,15.797,114.652,15.798z M114.764,2.328
				c-2.74,0-4.889,0.486-6.385,1.442c-1.539,0.987-2.32,2.707-2.32,5.109c0,0.883,0.131,1.731,0.391,2.521
				c0.338,1.029,0.91,1.839,1.697,2.407c1.443,1.046,3.633,1.576,6.506,1.576c2.867,0,5.057-0.53,6.506-1.576
				c0.656-0.473,1.174-1.144,1.537-1.995c0.367-0.86,0.553-1.854,0.553-2.953c0-2.384-0.781-4.097-2.322-5.09
				C119.436,2.813,117.363,2.328,114.764,2.328z M114.652,12.12c-1.586,0-2.391-1.087-2.391-3.231c0-0.798,0.188-1.436,0.559-1.895
				c0.422-0.504,1.025-0.758,1.795-0.758l0,0c1.59,0,2.43,0.921,2.43,2.663C117.045,11.036,116.24,12.12,114.652,12.12z
				 M114.615,6.65c-0.65,0-1.133,0.198-1.475,0.607c-0.309,0.38-0.465,0.93-0.465,1.631c0,1.896,0.646,2.817,1.977,2.817
				s1.977-0.918,1.977-2.808C116.629,7.385,115.971,6.65,114.615,6.65L114.615,6.65z"/>
		</g>
		<g>
			<polygon fill-rule="evenodd" clip-rule="evenodd" fill="#FFFFFF" points="136.738,15.227 124.604,15.227 124.604,2.484 
				131.156,2.484 131.156,10.718 136.738,10.718 			"/>
			<path d="M136.945,15.434h-12.549V2.277h6.967v8.233h5.582V15.434z M124.811,15.019h11.721v-4.094h-5.582V2.692h-6.139V15.019z"/>
		</g>
		<g>
			<path fill-rule="evenodd" clip-rule="evenodd" fill="#FFFFFF" d="M156.193,15.227h-6.607l-0.449-1.643h-4.275l-0.447,1.643
				h-6.693l4.07-12.742h10.389L156.193,15.227z M148.361,10.111l-1.307-4.033l-1.371,4.033H148.361z"/>
			<path d="M156.477,15.434h-7.049l-0.449-1.643h-3.959l-0.447,1.643h-7.135l4.201-13.156h10.693L156.477,15.434z M149.744,15.019
				h6.168l-3.885-12.327h-10.086l-3.938,12.327h6.252l0.447-1.643h4.592L149.744,15.019z M148.646,10.318h-3.252l1.666-4.898
				L148.646,10.318z M145.973,9.903h2.104l-1.025-3.167L145.973,9.903z"/>
		</g>
	</g>
	<g>
		<path fill="#E2231A" d="M142.531,25.263c-0.025,0-0.053,0-0.084,0.001l-22.811,0.877c1.359-0.985,3.186-2.349,3.93-3.077
			l0.184-0.18l-0.004-0.176c0.002-0.004,0.004-0.008,0.006-0.013c0.355-0.71-0.078-1.063-0.281-1.183l-0.094-0.055l-0.105-0.019
			c-0.752-0.13-1.535-0.196-2.326-0.196c-2.682,0-5.438,0.75-7.775,2.116c-1.475,0.216-2.914,0.486-4.307,0.748
			c-0.375,0.071-0.75,0.141-1.125,0.21c0.068-0.248,0.148-0.481,0.244-0.703l0.121-0.281l-0.564-0.942l-0.311-0.022
			c-0.201-0.014-0.406-0.021-0.613-0.021c-1.732,0-3.441,0.49-5.096,0.965c-0.527,0.151-1.039,0.298-1.543,0.427
			c0.002-0.003,0.002-0.006,0.004-0.009l0.029-0.103l-0.008-0.106c-0.002-0.027,0-0.086,0.002-0.139
			c0.008-0.262,0.033-1.059-0.729-1.243l-0.094-0.023l-0.098,0.008c-1.977,0.165-3.914,0.725-5.787,1.266
			c-1.084,0.313-2.131,0.616-3.17,0.845c0.104-0.084,0.203-0.162,0.289-0.23c0.475-0.373,0.67-0.527,0.652-0.872l-0.018-0.315
			l-0.463-0.297l-0.236,0.048c-3.891,0.78-8.045,1.633-12.061,2.581c-2.502,0.612-5.084,1.244-7.719,1.626
			c0.02-0.23,0.084-0.435,0.156-0.53c1.141-0.58,2.445-0.91,3.709-1.23c0.602-0.152,1.223-0.31,1.805-0.489
			c0.656-0.194,5.346-0.993,6.994-0.993c0.045,0,0.086,0,0.125,0.002c0.385,0.125,0.686,0.186,0.918,0.186
			c0.189,0,0.348-0.039,0.482-0.12c0.217-0.129,0.344-0.355,0.344-0.604c0-0.598-0.807-1.161-1.432-1.161H83.66h-0.107
			c-4.965,0-10.211,1.591-14.838,2.994l-0.492,0.149c-0.057,0.007-0.113,0.017-0.168,0.029l-0.043-0.069
			c0.113-0.233,0.115-0.476,0.006-0.723l-0.029-0.061c-0.275-0.469-0.646-0.706-1.102-0.706c-0.006,0-0.01,0-0.016,0l-0.002-0.005
			c-0.098-0.309-0.295-0.55-0.582-0.716l-0.104-0.06l-0.119-0.015c-1.449-0.184-2.674-0.112-3.643,0.213l-0.02,0.007
			c-0.143,0.054-0.287,0.107-0.432,0.161c-1.557,0.576-3.166,1.172-4.344,2.362l-0.018,0.019c-0.213,0.234-0.996,1.349-0.658,2.121
			l0.064,0.146l0.127,0.095c0.426,0.314,0.898,0.467,1.445,0.467c0.297,0,0.574-0.044,0.816-0.083
			c0.168-0.026,0.324-0.051,0.455-0.057l0.088-0.004l0.082-0.028c1.016-0.349,1.816-0.722,2.592-1.083
			c0.641-0.298,1.303-0.606,2.096-0.905c0.229-0.075,0.455-0.159,0.676-0.242c-0.041,0.131-0.07,0.275-0.076,0.435l-0.002,0.056
			l0.01,0.055c0.09,0.597,0.656,0.772,0.898,0.847l0.115,0.036l0.086,0.001c0.852,0.014,1.59-0.21,2.293-0.449
			c-0.018,0.054-0.031,0.109-0.045,0.166l-0.023,0.099l0.012,0.101c0.08,0.743,0.477,1.263,1.059,1.392l0.062,0.014h0.088
			c1.668,0,3.254-0.346,4.789-0.681l0.113-0.025c2.393-0.442,4.826-1.061,7.182-1.66c1.613-0.411,3.27-0.832,4.904-1.193
			c-0.02,0.077-0.035,0.156-0.043,0.235c-0.033,0.368,0.076,0.704,0.318,0.971l0.195,0.215l0.289-0.021
			c2.234-0.155,4.461-0.755,6.613-1.335c1.111-0.299,2.25-0.606,3.381-0.848c-0.229,0.352-0.463,0.715-0.555,1.143l-0.043,0.202
			l0.092,0.186c0.227,0.467,0.668,0.527,0.857,0.553c0.02,0.003,0.039,0.005,0.051,0.007l0.191,0.054l0.186-0.071
			c1.773-0.683,3.957-1.312,6.32-1.82l0.047-0.01l0.045-0.018c0.27-0.105,0.604-0.15,0.957-0.193
			c-0.055,0.38-0.148,0.827-0.32,1.349l-0.32,0.981l1.01-0.211c1.027-0.214,2.377-0.41,3.684-0.6
			c1.195-0.173,2.328-0.338,3.238-0.516c0.773,0.232,1.49,0.341,2.248,0.341c0.557,0,1.08-0.06,1.611-0.137
			c-0.352,0.179-0.768,0.379-1.264,0.605c-0.117,0.053-0.203,0.093-0.27,0.124c-4.469,0.292-6.838,0.53-8.93,0.74
			c-2.117,0.212-4.117,0.413-7.918,0.63l-0.666,0.038l0.111,0.658c0.092,0.543,0.703,1.006,4.25,2.474
			c0.188,0.077,0.381,0.157,0.449,0.188l0.078,0.037c0.406,0.159,0.82,0.327,1.221,0.49c1.762,0.718,3.426,1.396,4.736,1.396l0,0
			c0.734,0,1.322-0.216,1.746-0.644c0.811-0.583,1.287-0.846,1.635-1.04c0.383-0.212,0.662-0.367,1.027-0.733
			c1.068-0.689,3.229-1.949,3.771-2.264l25.854-1.252l0.07-0.004l0.066-0.019c0.32-0.093,1.068-0.31,0.977-0.957
			C143.791,25.505,143.332,25.263,142.531,25.263z M113.078,28.262c-0.537,0.35-1.084,0.697-1.621,1.039
			c-0.812,0.515-1.65,1.046-2.449,1.586c-2.764-0.597-4.203-1.116-6.297-1.88c0.123-0.008,0.254-0.018,0.395-0.03L113.078,28.262z
			 M120.504,22.903c-2.066,0.908-4.455,1.331-5.836,1.341c0.426-0.213,1.158-0.491,2.346-0.775
			C118.164,23.193,119.459,22.986,120.504,22.903z M65.109,24.255c-1.561,0.771-3.578,1.691-5.26,2.344
			c-0.412,0.156-0.762,0.235-1.041,0.235c-0.25,0-0.375-0.063-0.443-0.127c0.117-0.144,0.463-0.455,1.453-1.116
			c1.305-0.777,3.68-1.379,4.859-1.379c0.111,0,0.205,0.005,0.283,0.017C65.02,24.237,65.068,24.246,65.109,24.255z"/>
		<path fill="#E2231A" d="M92.629,21.748c0.191,0.201,0.475,0.321,0.758,0.321l0.164-0.003l0.129-0.07
			c0.496-0.27,0.842-0.623,1.178-0.964c0.248-0.253,0.484-0.493,0.773-0.691l0.139-0.095l0.068-0.153
			c0.143-0.315,0.051-0.563-0.018-0.683c-0.197-0.352-0.58-0.399-0.811-0.428c-0.031-0.004-0.061-0.007-0.086-0.012l-0.115-0.027
			l-0.119,0.02c-0.678,0.116-1.451,0.301-2.035,0.786l-0.131,0.108l-0.066,0.197c-0.102,0.295-0.277,0.81-0.066,1.238
			C92.424,21.462,92.506,21.619,92.629,21.748z"/>
		<path fill="#E2231A" d="M79.797,32.153c-0.482-0.041-1.379-0.117-1.613-0.224l-0.07-0.033l-0.078-0.014
			c-5.98-1.022-11.971-2.103-17.764-3.147c-3.83-0.691-7.768-1.401-11.688-2.092c0.125-0.035,0.25-0.07,0.377-0.106
			c1.512-0.427,3.074-0.869,4.389-1.196c1.168-0.255,2.33-0.636,3.455-1.004c0.967-0.316,1.965-0.644,2.947-0.882
			c0.6-0.068,1.043-0.594,1.064-1.273l0.008-0.237l-0.158-0.177c-0.191-0.217-0.422-0.354-0.691-0.409
			c-1.898-0.362-3.949-0.374-5.932-0.385c-0.758-0.004-1.475-0.008-2.184-0.031h-0.014h-0.012c-5.061,0.04-10.033,0.11-14.842,0.179
			l-0.029,0.001c-1.254,0.08-2.512,0.138-3.727,0.193c-2.125,0.097-4.322,0.197-6.502,0.421l-0.332,0.031l-0.145,0.302
			c-0.008,0.015-0.018,0.029-0.027,0.043c-0.336,0.524-0.16,0.912,0.047,1.146l0.156,0.176l0.234,0.021
			c0.363,0.034,0.729,0.05,1.117,0.05c0.893,0,1.764-0.089,2.607-0.176c0.189-0.02,0.379-0.039,0.572-0.058
			c2.404-0.053,4.848-0.139,7.213-0.223c2.217-0.079,4.477-0.158,6.742-0.211c-0.023,0.032-0.047,0.062-0.068,0.096
			c-1.672,1.551-3.191,3.171-4.662,4.738c-1.014,1.08-1.971,2.101-2.979,3.106l-0.182,0.179l0.021,1.116l0.387,0.14
			c0.174,0.062,0.348,0.094,0.512,0.094c0.707,0,1.082-0.533,1.357-0.921c0.127-0.182,0.26-0.37,0.375-0.436l0.078-0.045
			l0.062-0.066c0.898-0.964,2.061-2.088,3.291-3.278c0.314-0.304,0.631-0.609,0.945-0.915c-0.006,0.053-0.012,0.107-0.012,0.165
			c-0.021,0.314,0.07,0.829,0.854,0.955c0.004,0,0.006,0,0.008,0.001l0.057,0.07l0.215,0.042c6.584,1.28,13.285,2.448,19.766,3.577
			c4.814,0.838,9.791,1.706,14.713,2.617l0.092,0.017l0.092-0.012c0.58-0.074,1.131-0.638,1.182-1.207l0.049-0.562l-0.559-0.082
			C80.34,32.199,80.088,32.178,79.797,32.153z M47.758,22.832l0.039-0.046c0.682-0.008,1.363-0.013,2.043-0.013
			c1.088,0,2.15,0.011,3.156,0.033c0.566,0.011,1.092,0.014,1.602,0.017c0.211,0.001,0.42,0.002,0.627,0.004
			c-3.076,0.877-6.254,1.72-9.652,2.561l-0.049,0.014c-0.061,0.021-0.127,0.04-0.193,0.059c-0.029,0.009-0.061,0.018-0.094,0.027
			C46.162,24.568,47.035,23.667,47.758,22.832z"/>
		<path fill="#E2231A" d="M24.248,27.088l13.785-0.366c0.047,0.007,0.096,0.011,0.145,0.011c0.609,0,0.986-0.549,0.986-1.057
			c0-0.511-0.379-0.896-0.885-0.896l-13.617,0.442l-0.057,0.004c-0.334,0.042-0.598,0.233-0.721,0.522
			c-0.143,0.331-0.074,0.749,0.178,1.089L24.248,27.088z"/>
		<path fill="#E2231A" d="M146.471,21.709c-0.051-0.02-0.107-0.042-0.17-0.067l-0.115-0.047l-19.674,0.446l-0.076,0.001
			l-0.074,0.021c-0.242,0.069-0.434,0.229-0.539,0.451c-0.176,0.372-0.062,0.808,0.066,1.108l0.135,0.318l0.344,0.041
			c0.018,0.002,0.057,0.005,0.117,0.005c0.773,0,9.607-0.412,15.453-0.685c2.305-0.107,4.125-0.192,4.354-0.2l0.053-0.002
			l0.051-0.011c0.225-0.048,0.691-0.148,0.73-0.631C147.164,21.982,146.746,21.818,146.471,21.709z"/>
		<path fill="#E2231A" d="M34.256,28.813l-0.061-0.032c-0.299-0.162-0.584-0.181-0.773-0.181c-0.105,0-0.203,0.007-0.299,0.013
			c-0.119,0.008-0.232,0.015-0.307,0.006l-0.037-0.004l-8.107,0.142c-0.184-0.033-0.432-0.053-0.668-0.053
			c-0.297,0-1.199,0-1.439,0.646c-0.098,0.261-0.102,0.67,0.438,1.137l0.172,0.147l9.574-0.085l1.391,0.089l-0.182-0.516
			c0.244-0.149,0.543-0.337,0.576-0.707c0.018-0.211-0.064-0.415-0.227-0.559L34.256,28.813z"/>
		<path fill="#E2231A" d="M136.668,29.042h-0.029c-0.318,0.004-6.33,0.297-13.564,0.651c-3.203,0.157-5.969,0.292-6.16,0.299
			c-0.654,0.024-1.043,0.535-1.041,1.015c0.002,0.47,0.363,0.835,0.84,0.849h0.025c0.32,0,4.434-0.22,10.674-0.555
			c4.404-0.237,8.959-0.482,9.426-0.494c0.729-0.02,1.057-0.463,1.051-0.866C137.883,29.508,137.498,29.042,136.668,29.042z"/>
	</g>
</g>
<g>
</g>
<g>
</g>
<g>
</g>
<g>
</g>
<g>
</g>
<g>
</g>
</svg>
